inDegrees=no
num_controls=7
num_derivatives=13
num_iterations=92
num_multipliers=7
num_parameters=0
num_slacks=7
num_states=26
objective=0.425842
objective_accelerations=0.058046
objective_balance=0.001229
objective_effort=0.014670
objective_height=0.345936
objective_ligament=0.005960
solver_duration=1355.755918
status=Solve_Succeeded
success=true
DataType=double
version=3
OpenSimVersion=4.5
endheader
time	/jointset/ground_pelvis/pelvis_tilt/value	/jointset/ground_pelvis/pelvis_tx/value	/jointset/ground_pelvis/pelvis_ty/value	/jointset/hip_l/hip_flexion_l/value	/jointset/hip_l/hip_adduction_l/value	/jointset/hip_l/hip_rotation_l/value	/jointset/back/lumbar_extension/value	/jointset/patellofemoral_l/patellar_flexion_l/value	/jointset/knee_l/knee_flexion_l/value	/jointset/knee_l/knee_adduction_l/value	/jointset/knee_l/knee_rotation_l/value	/jointset/ankle_l/ankle_angle_l/value	/jointset/subtalar_l/subtalar_angle_l/value	/jointset/ground_pelvis/pelvis_tilt/speed	/jointset/ground_pelvis/pelvis_tx/speed	/jointset/ground_pelvis/pelvis_ty/speed	/jointset/hip_l/hip_flexion_l/speed	/jointset/hip_l/hip_adduction_l/speed	/jointset/hip_l/hip_rotation_l/speed	/jointset/back/lumbar_extension/speed	/jointset/patellofemoral_l/patellar_flexion_l/speed	/jointset/knee_l/knee_flexion_l/speed	/jointset/knee_l/knee_adduction_l/speed	/jointset/knee_l/knee_rotation_l/speed	/jointset/ankle_l/ankle_angle_l/speed	/jointset/subtalar_l/subtalar_angle_l/speed	/forceset/tau_hip_flexion_l	/forceset/tau_hip_adduction_l	/forceset/tau_hip_rotation_l	/forceset/tau_knee_flexion_l	/forceset/tau_ankle_angle_l	/forceset/tau_subtalar_angle_l	/forceset/tau_lumbar_extension	lambda_cid13_p0	lambda_cid13_p1	lambda_cid13_p2	lambda_cid13_p3	lambda_cid13_p4	lambda_cid13_p5	lambda_cid14_p0	/jointset/ground_pelvis/pelvis_tilt/accel	/jointset/ground_pelvis/pelvis_tx/accel	/jointset/ground_pelvis/pelvis_ty/accel	/jointset/hip_l/hip_flexion_l/accel	/jointset/hip_l/hip_adduction_l/accel	/jointset/hip_l/hip_rotation_l/accel	/jointset/back/lumbar_extension/accel	/jointset/patellofemoral_l/patellar_flexion_l/accel	/jointset/knee_l/knee_flexion_l/accel	/jointset/knee_l/knee_adduction_l/accel	/jointset/knee_l/knee_rotation_l/accel	/jointset/ankle_l/ankle_angle_l/accel	/jointset/subtalar_l/subtalar_angle_l/accel	gamma_cid13_p0	gamma_cid13_p1	gamma_cid13_p2	gamma_cid13_p3	gamma_cid13_p4	gamma_cid13_p5	gamma_cid14_p0
1.5	-0.3450870206664441	0.05401768907058888	0.7900614222590794	1.009387392665347	-0.3587954931822399	-0.05121579180742106	-0.3279583617857296	0.8244634672728105	0.8244634672728235	-0.03399952956345448	-0.1733074148949284	0.2792856606071185	0.1559381614333226	0.4776166184215841	0.2719106802694433	0.5008803741152872	-2.322410992429587	-0.009114828057048429	-0.6034269775587731	0.6173783323998622	-2.225965089347909	-2.225965089347781	-0.3269874526680006	0.02456611743111135	-0.5587584713297813	-0.2332363459122911	-0.1313896121502718	0.04911687808238498	-0.0003971789755728678	-0.1294096666690991	-0.03785005026844244	0.006239573719217352	0.1251212091651598	-35.84720240242094	2.523676793800993	0.5080740647648441	-2.101188878730313	-428.0350810470477	-48.45612884190645	-9.993559332097709	0.5790719639893332	0.5535736253226916	-0.7957655150870745	-1.216274609180916	0.3035835841030914	-0.5807566635341783	1.518335302598657	-1.133157076697015	-1.133157076697011	-0.1236749152218228	0.2873190836425109	-0.5797755145753855	0.4238064146263118	6.28679176139209e-07	-3.868699011228845e-07	-7.492980081263405e-06	-4.231184741819987e-07	1.533119292796235e-06	1.867421787689934e-06	8.431333807617018e-07
1.51	-0.3402818976155538	0.0567642959704079	0.7950294958007513	0.9861035826499713	-0.3588742352458719	-0.05727235337113461	-0.3217104104788827	0.8021490991296973	0.802149099129743	-0.03728512667827233	-0.1730464836980579	0.2736691589920449	0.1536231702940047	0.4833148051283871	0.277383366593951	0.4926260977035828	-2.334044771372878	-0.006629401154341827	-0.6077826257740299	0.6321372058686691	-2.236595146381731	-2.236595146381764	-0.3301343584155121	0.02768356457684866	-0.5644205232302563	-0.2297154950652779	-0.126816216574664	0.04781469547316932	0.0006031740483914662	-0.1269039479330616	-0.03672858525714719	0.005043901420485383	0.1213799202125221	-35.39334148016163	2.842079009269715	0.5959895222278391	-2.211698776293738	-424.8851746256394	-48.14147080928938	-10.9205645043454	0.5512695967899425	0.539968664700886	-0.8561806922805699	-1.090906615447857	0.2226705174241336	-0.3466193223919707	1.443454903883514	-0.9811013803334542	-0.9811013803576168	-0.4106666297788159	0.3321723328745949	-0.5411715885786129	0.3238964978346843	6.245270511845258e-07	4.383477672134402e-07	-7.267986791833983e-06	-3.00630975269933e-07	1.555775102741135e-06	2.392786525392896e-06	8.816472242542627e-07
1.52	-0.3354225771830433	0.05956480023920918	0.7999118421806923	0.9627126394294534	-0.3589277933856628	-0.06336920150137454	-0.3153171121303752	0.7797377961435253	0.7797377961435998	-0.04060228649561603	-0.1727527350691647	0.2679996865458075	0.1513449220787762	0.488456094745759	0.2826901540658946	0.4837349417691293	-2.343837633457955	-0.004078043288848004	-0.6114842908641077	0.6464477407319499	-2.245352057959897	-2.245352057960092	-0.3332999931735426	0.03112960383599718	-0.5693526375625334	-0.2258877610944293	-0.122242820999054	0.04651251286395682	0.001603527072355689	-0.1243982291970257	-0.03560712024585187	0.003848229121757554	0.1176386312598865	-34.93334305518839	3.156345465205634	0.6880659119027065	-2.374690841477383	-421.6543381059336	-47.94383784628773	-11.8446036224757	0.4676925461031112	0.520393854809895	-0.9231414196369278	-0.8480912375379364	0.3167697766605356	-0.4499600384983833	1.428667581493444	-0.7585279855656459	-0.7585279855658162	-0.127420717325621	0.3530375063247579	-0.4337880009358127	0.4851830393934184	5.661563343470886e-07	1.261834216239711e-06	-6.472094200771453e-06	-1.514178760479076e-07	1.457104716179493e-06	2.68487243444484e-06	8.549825336645331e-07
1.53	-0.3305147137304351	0.06241706769333227	0.8047021435532796	0.9392336944007436	-0.3589549589587415	-0.06950249096687282	-0.3087834047617036	0.7572483368443447	0.7572483368442665	-0.04394829913497836	-0.1724240497443158	0.2622841124612741	0.1491070745422174	0.4930301403263531	0.2876886931188597	0.4742245395603227	-2.35159664640168	-0.00136750479218696	-0.6149332351402591	0.6601548127109667	-2.252230650290596	-2.252230650290744	-0.3360157805896582	0.03474259611761101	-0.5737051496599962	-0.2216894906800378	-0.1182162441537043	0.04483932060320434	0.002714337919696428	-0.1206645571608067	-0.03715339790827295	0.003036750222504916	0.1141095625776309	-35.32812093228282	3.346082678271705	0.9225979557837646	-1.562139727278864	-418.5952161413911	-48.01546312226727	-12.76441559118619	0.4393325947645661	0.4784116395470179	-0.979887061746691	-0.6865379518289829	0.2467471632908429	-0.2555804738572872	1.320888962384728	-0.6062936621785273	-0.6062936621712988	-0.360432982492407	0.3849502710358204	-0.4273242248381984	0.3861030754515927	4.501783636342256e-07	2.083481244749049e-06	-5.069621101723753e-06	2.619117350344972e-08	1.229525245829654e-06	2.72909958805508e-06	7.590656506123702e-07
1.54	-0.3255636954158762	0.0653170860797864	0.80939436141573	0.9156878129167881	-0.35895530889143	-0.07566291364546872	-0.302116794281986	0.7346993378607826	0.7346993378605595	-0.04732482469423765	-0.1720553304602646	0.2565267449736285	0.1469110005164004	0.4970870671360293	0.2922403405321042	0.4641182397417441	-2.357224924506974	0.001285084789352698	-0.6169109334837615	0.6730283629411428	-2.257259994835551	-2.257259994835651	-0.3394025771552889	0.03913639567747099	-0.5777113181849263	-0.2175330589460627	-0.1141896673083526	0.04316612834245256	0.00382514876708843	-0.1169308851245853	-0.03869967557069261	0.002225271323255471	0.1105804938953766	-35.71866691105264	3.535806987447796	1.156305151674223	-0.7936628917641901	-415.4741801294732	-48.16137474196172	-13.67953460157809	0.3642687919195388	0.4310155268658046	-1.042320941591326	-0.4219442698518323	0.3051799936362531	-0.1557108519685849	1.261963231725331	-0.3886784284166338	-0.3886784284166771	-0.261622547228632	0.5091989619739921	-0.3645192864292957	0.4768153033101679	2.616714194400715e-07	3.868145982040339e-06	-2.833338964977733e-06	3.595889641482086e-07	8.175874693425342e-07	2.779056685707531e-06	6.608692327946497e-07
1.55	-0.3205749146533348	0.06826067449001041	0.8139826516971993	0.892096455916939	-0.3589280464358005	-0.08184790572088609	-0.2953252697141532	0.7121100147644557	0.7121100147644436	-0.0507284630773356	-0.1716465830632457	0.2507322615440656	0.1447587405314786	0.5005725744231458	0.2964315359175058	0.4534529677572177	-2.360714089879135	0.00417020302250354	-0.6199494662654618	0.6851630563093042	-2.260266246841108	-2.26026624684117	-0.3413523712729596	0.04266602212070429	-0.5810602657946715	-0.2128835519508917	-0.1096711792878177	0.04212002040999904	0.00477420404316447	-0.1147864177134477	-0.03754029075716299	0.0003673790673125457	0.1068449800294803	-35.33765060390768	4.202221888284471	1.134305995367719	-0.8024515015244081	-412.7954777192783	-47.43530143708964	-14.59040127469343	0.326226856702142	0.4065321897836112	-1.091688371037758	-0.2625481172735208	0.2793731043469578	-0.3568725819304161	1.172198241935153	-0.2059427549802118	-0.2059427549745072	-0.1643626512687131	0.2832806534660053	-0.3009987484360139	0.4627536357902178	-1.040151593904405e-08	6.762374601189034e-06	3.636361934641229e-07	8.724824782266595e-07	1.932368618711697e-07	2.835615675408617e-06	5.600463944861782e-07
